HIERARCHY
ROOT Hip
{
	OFFSET 0 1.131 0.0052
	CHANNELS 6 Xposition Yposition Zposition Xrotation Yrotation Zrotation
	JOINT Abdomen
	{
		OFFSET 0 -0.047353 -0.05
		CHANNELS 3 Xrotation Zrotation Yrotation
		JOINT Chest
		{
			OFFSET 0 0.132153 0.007439
			CHANNELS 3 Xrotation Zrotation Yrotation
			JOINT Neck
			{
				OFFSET 0 0.3078 0.006161
				CHANNELS 3 Xrotation Zrotation Yrotation
				JOINT Head_comp
				{
					OFFSET 0 0.0884 0.013
					CHANNELS 3 Xrotation Yrotation Zrotation
					End Site
					{
						OFFSET -0 0.156 0.0624
					}
				}
			}
			JOINT Left_Collar
			{
				OFFSET 0.02282 0.250342 0.017193
				CHANNELS 2 Yrotation Zrotation
				JOINT Left_Shoulder
				{
					OFFSET 0.15421 0 0
					CHANNELS 3 Xrotation Yrotation Zrotation
					JOINT Left_Forearm
					{
						OFFSET 0.265212 0 0
						CHANNELS 2 Yrotation Xrotation
						JOINT Left_Hand
						{
							OFFSET 0.27571 0 0
							CHANNELS 2 Zrotation Yrotation
							JOINT L1ProxPhalanx
							{
								OFFSET 0.014142 0.001733 0.014142
								CHANNELS 3 Yrotation Zrotation Xrotation
								JOINT L1MidPhalanx
								{
									OFFSET 0.04 0 0
									CHANNELS 1 Zrotation
									JOINT L1DistPhalanx
									{
										OFFSET 0.035 0 0
										CHANNELS 1 Zrotation
										End Site
										{
											OFFSET 0.029 -0 -0
										}
									}
								}
							}
							JOINT L2ProxPhalanx
							{
								OFFSET 0.0821037 0.001578 0.0219996
								CHANNELS 2 Yrotation Zrotation
								JOINT L2MidPhalanx
								{
									OFFSET 0.04 0 0
									CHANNELS 1 Zrotation
									JOINT L2DistPhalanx
									{
										OFFSET 0.028 0 0
										CHANNELS 1 Zrotation
										End Site
										{
											OFFSET 0.02 -0 -0
										}
									}
								}
							}
							JOINT L3ProxPhalanx
							{
								OFFSET 0.083 0 0
								CHANNELS 2 Yrotation Zrotation
								JOINT L3MidPhalanx
								{
									OFFSET 0.053 0 0
									CHANNELS 1 Zrotation
									JOINT L3DistPhalanx
									{
										OFFSET 0.03 0 0
										CHANNELS 1 Zrotation
										End Site
										{
											OFFSET 0.023 -0 -0
										}
									}
								}
							}
							JOINT L4ProxPhalanx
							{
								OFFSET 0.077274 -0.000761 -0.0207055
								CHANNELS 2 Yrotation Zrotation
								JOINT L4MidPhalanx
								{
									OFFSET 0.05 0 0
									CHANNELS 1 Zrotation
									JOINT L4DistPhalanx
									{
										OFFSET 0.03 0 0
										CHANNELS 1 Zrotation
										End Site
										{
											OFFSET 0.023 -0 -0
										}
									}
								}
							}
							JOINT L5ProxPhalanx
							{
								OFFSET 0.0675499 -0.001644 -0.039
								CHANNELS 2 Yrotation Zrotation
								JOINT L5MidPhalanx
								{
									OFFSET 0.04 0 0
									CHANNELS 1 Zrotation
									JOINT L5DistPhalanx
									{
										OFFSET 0.021 0 0
										CHANNELS 1 Zrotation
										End Site
										{
											OFFSET 0.022 -0 -0
										}
									}
								}
							}
						}
					}
				}
			}
			JOINT Right_Collar
			{
				OFFSET -0.02282 0.250342 0.017193
				CHANNELS 2 Yrotation Zrotation
				JOINT Right_Shoulder
				{
					OFFSET -0.15421 0 0
					CHANNELS 3 Xrotation Yrotation Zrotation
					JOINT Right_Forearm
					{
						OFFSET -0.265212 0 0
						CHANNELS 2 Yrotation Xrotation
						JOINT Right_Hand
						{
							OFFSET -0.27571 3e-006 0
							CHANNELS 2 Zrotation Yrotation
							JOINT R1ProxPhalanx
							{
								OFFSET -0.014142 0.001733 0.014142
								CHANNELS 3 Yrotation Zrotation Xrotation
								JOINT R1MidPhalanx
								{
									OFFSET -0.04 0 0
									CHANNELS 1 Zrotation
									JOINT R1DistPhalanx
									{
										OFFSET -0.035 0 0
										CHANNELS 1 Zrotation
										End Site
										{
											OFFSET -0.029 -0 -0
										}
									}
								}
							}
							JOINT R2ProxPhalanx
							{
								OFFSET -0.0821037 0.001578 0.0219996
								CHANNELS 2 Yrotation Zrotation
								JOINT R2MidPhalanx
								{
									OFFSET -0.04 0 0
									CHANNELS 1 Zrotation
									JOINT R2DistPhalanx
									{
										OFFSET -0.028 0 0
										CHANNELS 1 Zrotation
										End Site
										{
											OFFSET -0.02 -0 -0
										}
									}
								}
							}
							JOINT R3ProxPhalanx
							{
								OFFSET -0.083 0 0
								CHANNELS 2 Yrotation Zrotation
								JOINT R3MidPhalanx
								{
									OFFSET -0.053 0 0
									CHANNELS 1 Zrotation
									JOINT R3DistPhalanx
									{
										OFFSET -0.03 0 0
										CHANNELS 1 Zrotation
										End Site
										{
											OFFSET -0.023 -0 -0
										}
									}
								}
							}
							JOINT R4ProxPhalanx
							{
								OFFSET -0.077274 -0.000761 -0.0207055
								CHANNELS 2 Yrotation Zrotation
								JOINT R4MidPhalanx
								{
									OFFSET -0.05 0 0
									CHANNELS 1 Zrotation
									JOINT R4DistPhalanx
									{
										OFFSET -0.03 0 0
										CHANNELS 1 Zrotation
										End Site
										{
											OFFSET -0.023 -0 -0
										}
									}
								}
							}
							JOINT R5ProxPhalanx
							{
								OFFSET -0.0675499 -0.001644 -0.039
								CHANNELS 2 Yrotation Zrotation
								JOINT R5MidPhalanx
								{
									OFFSET -0.04 0 0
									CHANNELS 1 Zrotation
									JOINT R5DistPhalanx
									{
										OFFSET -0.021 0 0
										CHANNELS 1 Zrotation
										End Site
										{
											OFFSET -0.022 -0 -0
										}
									}
								}
							}
						}
					}
				}
			}
		}
	}
	JOINT Left_Thigh
	{
		OFFSET 0.1118 -0.1612 -0.0442
		CHANNELS 3 Xrotation Zrotation Yrotation
		JOINT Left_Shin
		{
			OFFSET 0 -0.477856 0
			CHANNELS 1 Xrotation
			JOINT Left_Foot
			{
				OFFSET 0 -0.431952 0
				CHANNELS 2 Xrotation Zrotation
				JOINT Left_Toe
				{
					OFFSET 0 -0.0442 0.119
					CHANNELS 1 Xrotation
					End Site
					{
						OFFSET -0 -0 0.07
					}
				}
			}
		}
	}
	JOINT Right_Thigh
	{
		OFFSET -0.1118 -0.1612 -0.0442
		CHANNELS 3 Xrotation Zrotation Yrotation
		JOINT Right_Shin
		{
			OFFSET 0 -0.477856 0
			CHANNELS 1 Xrotation
			JOINT Right_Foot
			{
				OFFSET 0 -0.431952 0
				CHANNELS 2 Xrotation Zrotation
				JOINT Right_Toe
				{
					OFFSET 0 -0.0442 0.119
					CHANNELS 1 Xrotation
					End Site
					{
						OFFSET -0 -0 0.07
					}
				}
			}
		}
	}
}
MOTION
Frames: 5
Frame Time: 0.009975
-0.098679 -0.060132 0.0480871 2.45887e-013 5.10419e-008 -5.1096e-006 0 0 0 0 0 0 0 0 0 0 0 0 0 0 -0 0 -0 0 0 0 0 -36.7832 -29.9624 77.4898 -4.76427 -12.2444 -6.63439 -16.4575 -31.3511 -13.5114 -0.647911 -24.507 -18.2419 -18.0941 9.02909 -22.0218 -38.2405 -19.3412 17.3445 -18.4185 -40.523 -37.4487 0 0 -0 0 -0 0 0 0 0 53.1904 64.0049 99.6674 9.92678 8.65309 1.63362 12.3725 21.1795 17.4006 -0.683768 -0.625899 9.59114 2.82617 3.76766 -1.97504 11.5087 4.85312 -4.9664 -5.08809 53.5701 -35.0616 0.560926 -0.82633 -0.00808982 0.0240216 -0.58489 0.826375 0 0.572333 -0.826329 -0.00825431 0 -0.572273 0.826375 0 
-0.098679 -0.060132 0.0480871 2.45887e-013 5.10419e-008 -5.1096e-006 0 0 0 0 0 0 0 0 0 0 0 0 0 0 -0 0 -0 0 0 0 0 -36.7832 -29.9624 77.4898 -4.76427 -12.2444 -6.63439 -16.4575 -31.3511 -13.5114 -0.647911 -24.507 -18.2419 -18.0941 9.02909 -22.0218 -38.2405 -19.3412 17.3445 -18.4185 -40.523 -37.4487 0 0 -0 0 -0 0 0 0 0 53.1904 64.0049 99.6674 9.92678 8.65309 1.63362 12.3725 21.1795 17.4006 -0.683768 -0.625899 9.59114 2.82617 3.76766 -1.97504 11.5087 4.85312 -4.9664 -5.08809 53.5701 -35.0616 0.560926 -0.82633 -0.00808982 0.0240216 -0.58489 0.826375 0 0.572333 -0.826329 -0.00825431 0 -0.572273 0.826375 0 
-0.101405 -0.0600552 0.0364895 -1.92707e-012 -1.41007e-008 -5.08409e-006 0 -0 0 0 -0 0 0 -0 0 -0.710192 0.29107 -9.0651e-006 -2.57212 -16.0287 -14.4882 -34.8927 -37.2078 -35.8846 17.5033 29.3618 -5.37344 -53.2806 -63.813 99.4984 -10.0521 -8.70983 -1.63047 -12.4606 -21.2736 -17.3886 0.680441 0.462773 -9.74319 -2.90204 -3.74209 1.8053 -11.6512 -4.91886 4.97146 4.94266 -53.4722 34.7863 2.57212 16.0287 -14.4882 34.8927 37.2078 35.8846 17.5033 -29.3618 5.37344 53.2806 63.813 99.4984 10.0521 8.70983 1.63047 12.4606 21.2736 17.3886 -0.680441 -0.462773 9.74319 2.90204 3.74209 -1.8053 11.6512 4.91886 -4.97146 -4.94266 53.4722 -34.7863 -0.169463 -0.65461 0.00194097 0.0239015 0.14555 0.654618 0 -0.158114 -0.65461 0.00181099 1.69901e-006 0.158102 0.654618 0 
-0.10135 -0.0600586 0.0355346 9.48219e-013 -1.94637e-008 -5.10962e-006 0 -0 0 0 -0 0 0 -0 0 -0.711745 0.290742 -2.38098e-010 -2.58496 -16.1092 -13.703 -34.9696 -35.2598 -36.9027 17.5883 29.5092 -5.39984 -53.1904 -64.0049 99.6674 -9.92678 -8.65309 -1.63362 -12.3725 -21.1795 -17.4006 0.683768 0.625899 -9.59114 -2.82617 -3.76766 1.97504 -11.5087 -4.85312 4.9664 5.08809 -53.5701 35.0616 2.58496 16.1092 -13.703 34.9696 35.2598 36.9027 17.5883 -29.5092 5.39984 53.1904 64.0049 99.6674 9.92678 8.65309 1.63362 12.3725 21.1795 17.4006 -0.683768 -0.625899 9.59114 2.82617 3.76766 -1.97504 11.5087 4.85312 -4.9664 -5.08809 53.5701 -35.0616 -0.229657 -0.658113 0.00263787 0.0240216 0.20562 0.658123 0 -0.218251 -0.658113 0.00250686 1.70755e-006 0.218235 0.658123 0 
-0.10135 -0.0600587 0.0355253 2.12745e-012 -1.95157e-008 -5.10962e-006 0 -0 0 0 -0 0 0 -0 0 -0.711719 0.290721 -6.33557e-015 -2.58496 -16.1092 -13.6972 -34.9687 -35.2472 -36.9091 17.5883 29.5092 -5.39984 -53.1904 -64.0049 99.6674 -9.92678 -8.65309 -1.63362 -12.3725 -21.1795 -17.4006 0.683768 0.625899 -9.59114 -2.82617 -3.76766 1.97504 -11.5087 -4.85312 4.9664 5.08809 -53.5701 35.0616 2.58496 16.1092 -13.6972 34.9687 35.2473 36.9091 17.5883 -29.5092 5.39984 53.1904 64.0049 99.6674 9.92678 8.65309 1.63362 12.3725 21.1795 17.4006 -0.683768 -0.625899 9.59114 2.82617 3.76766 -1.97504 11.5087 4.85312 -4.9664 -5.08809 53.5701 -35.0616 -0.23024 -0.658116 0.00264458 0.0240216 0.206203 0.658127 0 -0.218834 -0.658117 0.00251357 1.70755e-008 0.21882 0.658127 0 
